<?xml version="1.0" encoding="utf-8"?>
<!-- Generator: Adobe Illustrator 23.0.3, SVG Export Plug-In . SVG Version: 6.00 Build 0)  -->
<svg version="1.1" id="Layer_1" xmlns="http://www.w3.org/2000/svg" xmlns:xlink="http://www.w3.org/1999/xlink" x="0px" y="0px"
	 viewBox="0 0 2000 2000" style="enable-background:new 0 0 2000 2000;" xml:space="preserve">
<style type="text/css">
	.st0{fill:#7373FF;}
</style>
<rect x="-20.47" y="-20.47" width="2040.94" height="2040.94"/>
<g>
	<path class="st0" d="M422.54,828.12H283.41v137.77h94.97v-83.68h43.17v83.68h16.52v-52.76h43.17v173.75h-43.17v-52.76h-16.52v83.68
		h-43.17v-83.68h-94.97v137.77h139.13c103.8,0,177.46-71.85,177.46-172.16C600,899.27,526.62,828.12,422.54,828.12z M527.61,1034.11
		h-30.38v-68.22h30.38V1034.11z"/>
	<g>
		<g>
			<path class="st0" d="M704.59,876.58h54.32c14.96,0,26.77,1.15,35.43,3.45c8.66,2.3,15.02,6.27,19.09,11.91
				c4.07,5.64,6.1,13.45,6.1,23.42v51.96c0,9.71-1.9,17.22-5.71,22.54c-3.81,5.31-10.04,9.05-18.7,11.22
				c-8.66,2.16-20.67,3.25-36.02,3.25h-54.52V876.58z M757.73,982.47c8.4,0,14.73-0.36,18.99-1.08c4.26-0.72,7.35-2.13,9.25-4.23
				c1.9-2.09,2.85-5.38,2.85-9.84v-52.55c0-6.04-2.4-10.26-7.18-12.7c-4.79-2.43-12.43-3.64-22.93-3.64h-23.42v84.04H757.73z"/>
			<path class="st0" d="M882.41,1004.9c-5.97-0.92-12.17-2.49-18.6-4.72c-6.96-2.36-12.4-6.2-16.33-11.51
				c-3.94-5.31-5.9-11.78-5.9-19.39v-55.89c0-6.3,1.41-11.94,4.23-16.93c2.82-4.98,6.46-8.92,10.92-11.81
				c3.94-2.49,8.79-4.59,14.56-6.3c5.77-1.7,11.15-2.75,16.14-3.15c4.59-0.39,9.45-0.59,14.56-0.59c6.03,0,11.28,0.23,15.74,0.69
				c4.46,0.46,9.45,1.41,14.96,2.85c6.3,1.84,11.48,4.07,15.55,6.69c4.07,2.63,7.48,6.3,10.23,11.02c2.88,4.86,4.33,10.7,4.33,17.52
				v55.89c0,7.09-1.87,13.19-5.61,18.3c-3.74,5.12-8.89,8.99-15.45,11.61c-11.81,4.72-25.06,7.09-39.76,7.09
				C894.91,1006.28,888.38,1005.82,882.41,1004.9z M913.31,983.94c2.95-0.32,6-0.95,9.15-1.87c3.15-0.92,5.54-2.46,7.18-4.62
				c1.64-2.16,2.46-4.89,2.46-8.17v-56.09c0-6.03-2.43-10.33-7.28-12.89c-4.86-2.56-12.4-3.84-22.63-3.84s-17.78,1.25-22.63,3.74
				c-4.86,2.5-7.28,6.82-7.28,12.99v56.09c0,3.28,0.85,6.01,2.56,8.17c1.7,2.16,4.2,3.71,7.48,4.62c3.15,0.92,6.2,1.55,9.15,1.87
				c2.95,0.33,6.59,0.49,10.92,0.49C906.71,984.44,910.36,984.27,913.31,983.94z"/>
			<path class="st0" d="M987.6,876.58h43.69l31.49,91.32l31.1-91.32h41.14v127.73h-27.75v-94.47h-0.59l-32.28,94.47h-24.6
				l-33.26-94.47h-0.79v94.47H987.6V876.58z"/>
			<path class="st0" d="M1162.57,876.58h30.7v127.73h-30.7V876.58z"/>
			<path class="st0" d="M1220.82,876.58h31.1l61.8,87.19v-87.19h27.36v127.73h-31.1l-61.8-88.57v88.57h-27.36V876.58z"/>
			<path class="st0" d="M1402.48,876.58h37.39l46.05,127.73h-31.1l-11.41-33.66h-46.65l-11.22,33.66h-30.31L1402.48,876.58z
				 M1436.73,950.19l-16.14-48.02h-0.79l-16.14,48.02H1436.73z"/>
			<path class="st0" d="M1529.62,898.43h-39.36v-21.85h109.23v21.85h-39.16v105.89h-30.71V898.43z"/>
			<path class="st0" d="M1617.2,876.58h97.42v21.85h-66.72v29.32h60.23v21.85h-60.23v32.87h68.69v21.85h-99.39V876.58z"/>
		</g>
		<g>
			<path class="st0" d="M729.68,1056.64h-25.09v-13.92h69.62v13.92h-24.96v67.49h-19.57V1056.64z"/>
			<path class="st0" d="M793.02,1042.72h36.63c10.87,0,18.73,1.32,23.58,3.95c4.85,2.63,7.28,7.05,7.28,13.23v14.3
				c0,4.77-1.69,8.51-5.08,11.23c-3.39,2.72-7.88,4.45-13.48,5.21l23.58,33.49h-22.58l-21.33-31.99h-9.03v31.99h-19.57V1042.72z
				 M829.4,1079.22c4.6,0,7.73-0.61,9.41-1.82c1.67-1.21,2.51-3.57,2.51-7.09v-5.77c0-3.01-0.9-5.08-2.7-6.21
				c-1.8-1.13-4.87-1.69-9.22-1.69h-16.81v22.58H829.4z"/>
			<path class="st0" d="M905.92,1042.72h23.83l29.35,81.41h-19.82l-7.28-21.45h-29.73l-7.15,21.45h-19.32L905.92,1042.72z
				 M927.75,1089.64l-10.29-30.61h-0.5l-10.29,30.61H927.75z"/>
			<path class="st0" d="M975.67,1042.72h19.57v81.41h-19.57V1042.72z"/>
			<path class="st0" d="M1020.32,1042.72h19.82l39.39,55.57v-55.57h17.44v81.41h-19.82l-39.39-56.45v56.45h-17.44V1042.72z"/>
			<path class="st0" d="M1122.05,1042.72h19.57v81.41h-19.57V1042.72z"/>
			<path class="st0" d="M1166.71,1042.72h19.82l39.39,55.57v-55.57h17.44v81.41h-19.82l-39.39-56.45v56.45h-17.44V1042.72z"/>
			<path class="st0" d="M1294.79,1124.76c-3.6-0.42-7.15-1.13-10.66-2.13c-3.76-1-6.86-2.36-9.28-4.08
				c-2.43-1.71-4.39-3.95-5.9-6.71c-1.51-2.93-2.26-6.27-2.26-10.04v-33.87c0-4.1,0.83-7.8,2.51-11.1c1.67-3.3,3.93-5.92,6.77-7.84
				c2.68-1.76,5.88-3.26,9.6-4.52c3.72-1.26,7.38-2.09,10.97-2.51c3.01-0.33,6.65-0.5,10.92-0.5c11.54,0,22.58,0.88,33.11,2.63v14.8
				c-9.7-2.34-20.74-3.51-33.11-3.51c-14.13,0-21.2,4.1-21.2,12.29v32.74c0,4.01,1.9,6.86,5.71,8.53c3.8,1.67,9.55,2.51,17.25,2.51
				c4.1,0,8.49-0.63,13.17-1.88v-18.94h-13.3v-12.79h31.99v42.27c-4.18,1.51-9.51,2.76-16,3.76s-12.44,1.5-17.87,1.5
				C1302.52,1125.39,1298.38,1125.18,1294.79,1124.76z"/>
		</g>
	</g>
</g>
</svg>
